<?xml version="1.0" encoding="utf-8"?>
<!-- Generator: Adobe Illustrator 24.0.3, SVG Export Plug-In . SVG Version: 6.00 Build 0)  -->
<svg version="1.1" id="Layer_1" xmlns="http://www.w3.org/2000/svg" xmlns:xlink="http://www.w3.org/1999/xlink" x="0px" y="0px"
	 viewBox="0 0 569 164" style="enable-background:new 0 0 569 164;" xml:space="preserve">
<path style="fill:none;stroke:#FFFFFF;stroke-width:4;stroke-miterlimit:10;" d="M127.4,150.5H14.7c-2.1,0-3.7-1.7-3.7-3.7V51.9
	c0-2.1,1.7-3.7,3.7-3.7h112.6c2.1,0,3.7,1.7,3.7,3.7v94.9C131.1,148.9,129.4,150.5,127.4,150.5z"/>
<path style="fill:none;stroke:#FFFFFF;stroke-width:4;stroke-miterlimit:10;" d="M116.1,68.7v55.1c0,2.9-2.3,5.2-5.2,5.2h-4.5
	l-0.1,9.4L94,129H32.7c-2.9,0-5.2-2.3-5.2-5.2V68.7c0-2.9,2.3-5.2,5.2-5.2h78.1C113.7,63.5,116.1,65.8,116.1,68.7z"/>
<circle style="fill:none;stroke:#FFFFFF;stroke-width:4;stroke-miterlimit:10;" cx="52.4" cy="89.5" r="6"/>
<circle style="fill:none;stroke:#FFFFFF;stroke-width:4;stroke-miterlimit:10;" cx="93.4" cy="90.3" r="6"/>
<line style="fill:none;stroke:#FFFFFF;stroke-width:4;stroke-miterlimit:10;" x1="71.2" y1="48.2" x2="71.2" y2="30"/>
<circle style="fill:none;stroke:#FFFFFF;stroke-width:4;stroke-miterlimit:10;" cx="71.2" cy="19.2" r="9.6"/>
<g>
	<path style="fill:#FFFFFF;" d="M150.1,125.3c-0.4-0.3-0.5-0.8-0.5-1.3c0-0.9,0.4-1.9,1.3-2.9c0.9-1,1.8-1.5,2.7-1.5
		c0.4,0,0.8,0.1,1.1,0.3c5,3.9,10.8,5.8,17.3,5.8c4.3,0,7.8-0.9,10.5-2.6c2.7-1.7,4.1-4.2,4-7.4c0-1.6-0.2-2.9-0.6-4
		c-0.4-1.1-1.1-2.1-2-2.9c-0.9-0.8-2-1.5-3.1-2.1c-1.2-0.6-2.7-1.2-4.6-1.8l-12.6-4.2c-4.7-1.6-8.1-3.6-10.4-6
		c-2.3-2.4-3.4-5.7-3.5-9.9c0-3.4,1-6.4,2.9-9c2-2.6,4.6-4.5,8-5.9c3.4-1.3,7.1-2,11.4-2c4.1,0,8.1,0.6,11.9,2
		c3.8,1.3,6.7,2.9,8.7,4.7c0.7,0.6,1,1.3,1,2.2c0,0.9-0.3,1.7-1,2.5c-0.7,0.7-1.5,1.1-2.4,1.1c-0.7,0-1.3-0.2-1.9-0.6
		c-1.8-1.2-4-2.2-6.8-3.2c-2.7-1-5.6-1.5-8.7-1.5c-4.4,0-7.9,0.8-10.5,2.4c-2.6,1.6-3.9,4-3.9,7c0,2.3,0.7,4.1,2.1,5.5
		c1.4,1.4,3.5,2.5,6.5,3.5l12.7,4.1c2.6,0.8,4.7,1.7,6.5,2.6c1.8,0.9,3.4,2,4.8,3.3s2.5,2.9,3.3,4.7c0.7,1.8,1.1,3.9,1.1,6.3
		c0,5.7-2.1,10.2-6.3,13.4c-4.2,3.2-10,4.8-17.2,4.8C162.7,132.9,155.5,130.4,150.1,125.3z"/>
	<path style="fill:#FFFFFF;" d="M210.3,129.8c-3.3-1.8-5.9-4.4-7.8-7.9c-1.9-3.5-2.9-7.5-2.9-12.2c0-4.1,0.8-7.8,2.4-11.2
		c1.6-3.4,4-6.1,7.3-8.2c3.2-2.1,7-3.2,11.4-3.2c3.4,0,6.4,0.6,9,1.7c2.6,1.1,4.6,2.7,6.2,4.7c1.5,2,2.7,4.2,3.4,6.7
		c0.8,2.5,1.2,5.2,1.3,8.2c0,0.9-0.2,1.6-0.7,2.1c-0.5,0.6-1.2,0.8-2.1,0.8l-30.2,0.1c0.1,5,1.4,8.9,4.1,11.4c2.6,2.6,6,3.9,10.2,4
		c2.6,0,5-0.5,7-1.4c2.1-0.9,4.2-2.2,6.3-3.8c0.5-0.4,1.1-0.6,1.7-0.6c0.7,0,1.3,0.3,1.8,0.8c0.5,0.5,0.7,1.2,0.7,1.9
		c0,0.9-0.4,1.8-1.2,2.5c-4.6,4.2-10.2,6.3-16.8,6.3C217.3,132.5,213.6,131.6,210.3,129.8z M233.7,106.5c-0.3-4.1-1.4-7.5-3.5-10.1
		s-5.1-3.9-9-3.9c-2.1,0-3.9,0.4-5.6,1.2c-1.7,0.8-3,1.9-4.1,3.2c-1.1,1.3-1.9,2.8-2.5,4.4s-1,3.4-1.2,5.2L233.7,106.5z"/>
	<path style="fill:#FFFFFF;" d="M255,129.7c-3.3-1.8-5.9-4.4-7.8-7.9c-1.9-3.5-2.9-7.5-2.9-12.2c0-4.1,0.8-7.8,2.4-11.2
		c1.6-3.4,4-6.1,7.3-8.2c3.2-2.1,7-3.2,11.4-3.2c3.4,0,6.4,0.6,9,1.7c2.6,1.1,4.6,2.7,6.2,4.7c1.5,2,2.7,4.2,3.4,6.7
		c0.8,2.5,1.2,5.2,1.3,8.2c0,0.9-0.2,1.6-0.7,2.1c-0.5,0.6-1.2,0.8-2.1,0.8l-30.2,0.1c0.1,5,1.4,8.9,4.1,11.4c2.6,2.6,6,3.9,10.2,4
		c2.6,0,5-0.5,7-1.4c2.1-0.9,4.2-2.2,6.3-3.8c0.5-0.4,1.1-0.6,1.7-0.6c0.7,0,1.3,0.3,1.8,0.8c0.5,0.5,0.7,1.2,0.7,1.9
		c0,0.9-0.4,1.8-1.2,2.5c-4.6,4.2-10.2,6.3-16.8,6.3C262,132.4,258.3,131.5,255,129.7z M278.4,106.4c-0.3-4.1-1.4-7.5-3.5-10.1
		c-2.1-2.6-5.1-3.9-9-3.9c-2.1,0-3.9,0.4-5.6,1.2c-1.7,0.8-3,1.9-4.1,3.2c-1.1,1.3-1.9,2.8-2.5,4.4s-1,3.4-1.2,5.2L278.4,106.4z"/>
	<path style="fill:#FFFFFF;" d="M294.2,130.3c-0.9-0.8-1.3-1.8-1.3-3L292.8,73c0-1.2,0.4-2.2,1.3-3c0.8-0.8,1.9-1.2,3.1-1.2l17.7,0
		c7.4,0,12.8,1.3,16.3,4.1c3.5,2.7,5.3,6.6,5.3,11.5c0,3.8-1.1,7-3.3,9.6c-2.2,2.6-5.3,4.2-9.4,4.8v0.2c4.8,0.5,8.5,2.1,11.2,4.8
		c2.7,2.7,4.1,6.3,4.1,11c0,2.2-0.4,4.3-1.3,6.3c-0.9,2-2.2,3.8-3.8,5.4c-1.7,1.6-3.9,2.9-6.7,3.8c-2.8,0.9-6,1.4-9.6,1.4l-20.5,0.1
		C296.1,131.5,295,131.1,294.2,130.3z M313.6,95.7c5,0,8.6-0.9,10.8-2.6c2.3-1.7,3.4-4.5,3.4-8.4c0-1.6-0.2-2.9-0.7-4.1
		c-0.5-1.1-1.1-2-1.9-2.7c-0.8-0.7-1.7-1.2-3-1.6c-1.2-0.4-2.4-0.6-3.6-0.8c-1.2-0.1-2.6-0.2-4.2-0.2l-12.9,0l0.1,20.3L313.6,95.7z
		 M315.9,124.6c5,0,8.5-0.8,10.7-2.3c2.2-1.5,3.3-4.5,3.3-8.7c0-4.2-1.4-7.1-4.2-8.7s-7.1-2.3-13.1-2.3l-11,0l0.1,22L315.9,124.6z"
		/>
	<path style="fill:#FFFFFF;" d="M348.2,125.8c-4-4.2-6-9.7-6-16.3c0-6.6,2-12.1,5.9-16.3s9.3-6.4,16.1-6.4c6.7,0,12.1,2.1,16.1,6.3
		c4,4.2,6,9.7,6,16.3c0,6.6-1.9,12-5.9,16.3c-3.9,4.3-9.3,6.4-16.1,6.4C357.6,132.2,352.2,130,348.2,125.8z M374.7,122.1
		c2.5-3.1,3.7-7.3,3.7-12.6c0-5.3-1.3-9.5-3.8-12.6c-2.5-3.1-6-4.6-10.4-4.6c-4.4,0-7.9,1.6-10.4,4.7c-2.5,3.1-3.7,7.3-3.7,12.7
		c0,5.3,1.3,9.5,3.8,12.5c2.5,3.1,5.9,4.6,10.3,4.6C368.7,126.7,372.2,125.1,374.7,122.1z"/>
	<path style="fill:#FFFFFF;" d="M397.9,128.6c-2-2.2-3-5.5-3-10.1l-0.1-25.3l-5.4,0c-1,0-1.7-0.2-2.2-0.7c-0.5-0.5-0.8-1.1-0.8-1.9
		c0-0.8,0.2-1.4,0.7-1.9s1.2-0.7,2.2-0.7l5.4,0l1-12.5c0.1-0.9,0.5-1.7,1.2-2.4c0.8-0.7,1.6-1,2.6-1c0.9,0,1.6,0.3,2.2,0.8
		c0.6,0.5,0.9,1.3,0.9,2.4l0,12.8l8.1,0c1,0,1.7,0.2,2.2,0.7c0.5,0.5,0.7,1.1,0.7,1.9c0,1.7-1,2.5-2.9,2.5l-8.1,0l0.1,24
		c0,3,0.4,5.2,1.3,6.5c0.9,1.3,2.2,2,4.1,2l0.5,0l3-0.1h0.3c1,0,1.7,0.3,2.3,0.9s0.8,1.3,0.8,2.2c0,0.7-0.2,1.3-0.5,1.8
		c-0.3,0.5-0.8,0.8-1.5,1c-0.7,0.2-1.3,0.3-2,0.4c-0.7,0.1-1.5,0.1-2.6,0.1l-2.6,0C402.5,131.9,399.9,130.8,397.9,128.6z"/>
	<path style="fill:#FFFFFF;" d="M422.1,130.1c-0.9-0.7-1.3-1.8-1.3-3.1l-0.1-54.3c0-1.2,0.4-2.2,1.3-3.1c0.9-0.8,1.9-1.3,3.1-1.3
		l19.1-0.1c2.4,0,4.6,0.1,6.6,0.4c2,0.2,4,0.7,6.1,1.4c2,0.7,3.7,1.6,5.1,2.7c1.4,1.1,2.5,2.6,3.4,4.6c0.9,1.9,1.3,4.1,1.3,6.7
		c0,3.6-1.1,6.7-3.3,9.3c-2.2,2.6-5.5,4.3-9.9,5.1l0,0.2c6.9,1.5,10.8,6.2,11.7,14.1l1.6,13.8c0,0.1,0,0.4,0,0.6
		c0,1.2-0.4,2.1-1.2,2.9c-0.8,0.7-1.8,1.1-2.9,1.1c-1.2,0-2.2-0.3-3.2-1c-1-0.7-1.5-1.7-1.6-2.9l-1.4-12.3c-0.3-2.7-0.7-4.7-1.1-6.2
		c-0.4-1.5-1.1-2.7-2-3.7s-2.1-1.7-3.5-2c-1.4-0.3-3.2-0.5-5.6-0.5l-14.7,0l0.1,24.5c0,1.3-0.4,2.4-1.3,3.1s-1.9,1.1-3.1,1.1
		C424,131.1,423,130.8,422.1,130.1z M442.4,95.6c1.7,0,3.3-0.1,4.6-0.2c1.3-0.2,2.7-0.4,4.1-0.9s2.6-1,3.5-1.8
		c0.9-0.8,1.7-1.8,2.3-3.1c0.6-1.3,0.9-2.9,0.9-4.6c0-1.5-0.2-2.8-0.6-3.9s-1-2-1.7-2.7c-0.8-0.7-1.6-1.2-2.4-1.6
		c-0.8-0.4-1.9-0.7-3.1-0.9c-1.2-0.2-2.3-0.3-3.2-0.4c-0.9-0.1-2-0.1-3.3-0.1l-14,0l0.1,20.2L442.4,95.6z"/>
	<path style="fill:#FFFFFF;" d="M479.1,127.6c-2.9-2.8-4.4-7.1-4.4-12.8l-0.1-23.7c0-1.2,0.4-2.1,1.2-2.8c0.8-0.7,1.7-1,2.8-1
		c1.1,0,2,0.3,2.8,1c0.8,0.7,1.2,1.6,1.2,2.8l0.1,23.8c0,3.8,0.9,6.6,2.6,8.5s4.1,2.9,7.3,2.9c3.4,0,6.3-1.2,8.6-3.6
		c2.3-2.4,3.6-5.7,3.8-9.8L504.9,91c0-1.2,0.4-2.1,1.2-2.8c0.8-0.7,1.7-1,2.8-1c1.1,0,2,0.3,2.8,1c0.8,0.7,1.1,1.6,1.2,2.8l0.1,36.2
		c0,1.2-0.4,2.1-1.2,2.8c-0.8,0.7-1.7,1-2.8,1s-2-0.3-2.8-0.9c-0.8-0.6-1.1-1.5-1.2-2.7l0-3.9c-1.1,2.7-2.9,4.7-5.5,6.2
		c-2.5,1.4-5.5,2.2-8.9,2.2C485.9,131.8,482,130.4,479.1,127.6z"/>
	<path style="fill:#FFFFFF;" d="M523,129.9c-0.8-0.7-1.1-1.6-1.2-2.8L521.7,91c0-1.2,0.4-2.1,1.2-2.8c0.8-0.7,1.7-1,2.8-1
		c1.1,0,2,0.3,2.8,0.9c0.8,0.6,1.2,1.5,1.2,2.7l0,3.8c1.1-2.7,2.9-4.7,5.5-6.2s5.5-2.2,8.9-2.2c4.8,0,8.7,1.4,11.6,4.2
		c2.9,2.8,4.3,7.1,4.3,12.8L560,127c0,1.2-0.4,2.1-1.2,2.8c-0.8,0.7-1.7,1-2.8,1c-1.1,0-2-0.3-2.8-1s-1.2-1.6-1.2-2.8l-0.1-23.8
		c0-3.8-0.9-6.6-2.6-8.6c-1.8-2-4.2-2.9-7.4-2.9c-3.4,0-6.2,1.2-8.5,3.6c-2.3,2.4-3.6,5.7-3.8,9.8l0.1,21.9c0,1.2-0.4,2.1-1.2,2.8
		c-0.8,0.7-1.7,1-2.8,1S523.7,130.6,523,129.9z"/>
</g>
</svg>
